<mxfile host="app.diagrams.net" agent="Mozilla/5.0 (Windows NT 10.0; Win64; x64) AppleWebKit/537.36 (KHTML, like Gecko) Chrome/130.0.0.0 Safari/537.36 Edg/130.0.0.0" version="24.8.0">
  <diagram name="Page-1" id="utlRqW9wgxh0zj-cVC51">
    <mxGraphModel dx="2505" dy="2090" grid="1" gridSize="10" guides="1" tooltips="1" connect="1" arrows="1" fold="1" page="1" pageScale="1" pageWidth="827" pageHeight="1169" math="0" shadow="0">
      <root>
        <mxCell id="0" />
        <mxCell id="1" parent="0" />
        <mxCell id="FU4dxXCowXcYlLU4jK4w-7" value="" style="edgeStyle=orthogonalEdgeStyle;rounded=0;orthogonalLoop=1;jettySize=auto;html=1;" parent="1" source="FU4dxXCowXcYlLU4jK4w-1" target="FU4dxXCowXcYlLU4jK4w-6" edge="1">
          <mxGeometry relative="1" as="geometry" />
        </mxCell>
        <mxCell id="FU4dxXCowXcYlLU4jK4w-1" value="" style="points=[[0.145,0.145,0],[0.5,0,0],[0.855,0.145,0],[1,0.5,0],[0.855,0.855,0],[0.5,1,0],[0.145,0.855,0],[0,0.5,0]];shape=mxgraph.bpmn.event;html=1;verticalLabelPosition=bottom;labelBackgroundColor=#ffffff;verticalAlign=top;align=center;perimeter=ellipsePerimeter;outlineConnect=0;aspect=fixed;outline=standard;symbol=general;" parent="1" vertex="1">
          <mxGeometry x="60" y="60" width="50" height="50" as="geometry" />
        </mxCell>
        <mxCell id="FU4dxXCowXcYlLU4jK4w-2" value="" style="points=[[0.145,0.145,0],[0.5,0,0],[0.855,0.145,0],[1,0.5,0],[0.855,0.855,0],[0.5,1,0],[0.145,0.855,0],[0,0.5,0]];shape=mxgraph.bpmn.event;html=1;verticalLabelPosition=bottom;labelBackgroundColor=#ffffff;verticalAlign=top;align=center;perimeter=ellipsePerimeter;outlineConnect=0;aspect=fixed;outline=end;symbol=terminate2;" parent="1" vertex="1">
          <mxGeometry x="810" y="205" width="50" height="50" as="geometry" />
        </mxCell>
        <mxCell id="FU4dxXCowXcYlLU4jK4w-9" value="" style="edgeStyle=orthogonalEdgeStyle;rounded=0;orthogonalLoop=1;jettySize=auto;html=1;" parent="1" source="FU4dxXCowXcYlLU4jK4w-6" target="FU4dxXCowXcYlLU4jK4w-8" edge="1">
          <mxGeometry relative="1" as="geometry" />
        </mxCell>
        <mxCell id="FU4dxXCowXcYlLU4jK4w-6" value="receive customer order requirements&amp;nbsp;" style="rounded=1;whiteSpace=wrap;html=1;verticalAlign=top;labelBackgroundColor=#ffffff;" parent="1" vertex="1">
          <mxGeometry x="155" y="55" width="120" height="60" as="geometry" />
        </mxCell>
        <mxCell id="FU4dxXCowXcYlLU4jK4w-11" value="" style="edgeStyle=orthogonalEdgeStyle;rounded=0;orthogonalLoop=1;jettySize=auto;html=1;" parent="1" source="FU4dxXCowXcYlLU4jK4w-8" target="FU4dxXCowXcYlLU4jK4w-10" edge="1">
          <mxGeometry relative="1" as="geometry" />
        </mxCell>
        <mxCell id="FU4dxXCowXcYlLU4jK4w-8" value="check order&amp;nbsp;" style="rounded=1;whiteSpace=wrap;html=1;verticalAlign=top;labelBackgroundColor=#ffffff;" parent="1" vertex="1">
          <mxGeometry x="355" y="55" width="120" height="60" as="geometry" />
        </mxCell>
        <mxCell id="FU4dxXCowXcYlLU4jK4w-13" value="" style="edgeStyle=orthogonalEdgeStyle;rounded=0;orthogonalLoop=1;jettySize=auto;html=1;" parent="1" source="FU4dxXCowXcYlLU4jK4w-10" target="FU4dxXCowXcYlLU4jK4w-12" edge="1">
          <mxGeometry relative="1" as="geometry" />
        </mxCell>
        <mxCell id="FU4dxXCowXcYlLU4jK4w-10" value="check if parts availability&amp;nbsp;&amp;nbsp;" style="rounded=1;whiteSpace=wrap;html=1;verticalAlign=top;labelBackgroundColor=#ffffff;" parent="1" vertex="1">
          <mxGeometry x="555" y="55" width="120" height="60" as="geometry" />
        </mxCell>
        <mxCell id="-2P8RMvVIsFMxLnkhKAe-2" value="" style="edgeStyle=orthogonalEdgeStyle;rounded=0;orthogonalLoop=1;jettySize=auto;html=1;" parent="1" source="FU4dxXCowXcYlLU4jK4w-12" target="-2P8RMvVIsFMxLnkhKAe-1" edge="1">
          <mxGeometry relative="1" as="geometry" />
        </mxCell>
        <mxCell id="-2P8RMvVIsFMxLnkhKAe-3" value="parts are not in stock&amp;nbsp;" style="edgeLabel;html=1;align=center;verticalAlign=middle;resizable=0;points=[];" parent="-2P8RMvVIsFMxLnkhKAe-2" vertex="1" connectable="0">
          <mxGeometry x="-0.024" relative="1" as="geometry">
            <mxPoint as="offset" />
          </mxGeometry>
        </mxCell>
        <mxCell id="-2P8RMvVIsFMxLnkhKAe-5" value="" style="edgeStyle=orthogonalEdgeStyle;rounded=0;orthogonalLoop=1;jettySize=auto;html=1;entryX=0;entryY=0.5;entryDx=0;entryDy=0;" parent="1" source="FU4dxXCowXcYlLU4jK4w-12" target="1TNm3yASb8GU968vAb-3-3" edge="1">
          <mxGeometry relative="1" as="geometry">
            <mxPoint x="1060" y="90" as="targetPoint" />
          </mxGeometry>
        </mxCell>
        <mxCell id="-2P8RMvVIsFMxLnkhKAe-7" value="parts are in stock&amp;nbsp;" style="edgeLabel;html=1;align=center;verticalAlign=middle;resizable=0;points=[];" parent="-2P8RMvVIsFMxLnkhKAe-5" vertex="1" connectable="0">
          <mxGeometry x="-0.1318" y="-3" relative="1" as="geometry">
            <mxPoint as="offset" />
          </mxGeometry>
        </mxCell>
        <mxCell id="FU4dxXCowXcYlLU4jK4w-12" value="" style="rhombus;whiteSpace=wrap;html=1;verticalAlign=top;rounded=1;labelBackgroundColor=#ffffff;" parent="1" vertex="1">
          <mxGeometry x="775" y="45" width="80" height="80" as="geometry" />
        </mxCell>
        <mxCell id="-2P8RMvVIsFMxLnkhKAe-9" value="" style="edgeStyle=orthogonalEdgeStyle;rounded=0;orthogonalLoop=1;jettySize=auto;html=1;" parent="1" source="-2P8RMvVIsFMxLnkhKAe-1" target="-2P8RMvVIsFMxLnkhKAe-8" edge="1">
          <mxGeometry relative="1" as="geometry" />
        </mxCell>
        <mxCell id="-2P8RMvVIsFMxLnkhKAe-1" value="Supplier Sends Delivery Schedule" style="rounded=1;whiteSpace=wrap;html=1;verticalAlign=top;labelBackgroundColor=#ffffff;" parent="1" vertex="1">
          <mxGeometry x="755" y="-140" width="120" height="60" as="geometry" />
        </mxCell>
        <mxCell id="1TNm3yASb8GU968vAb-3-4" value="" style="edgeStyle=orthogonalEdgeStyle;rounded=0;orthogonalLoop=1;jettySize=auto;html=1;" parent="1" source="-2P8RMvVIsFMxLnkhKAe-8" target="1TNm3yASb8GU968vAb-3-3" edge="1">
          <mxGeometry relative="1" as="geometry">
            <Array as="points">
              <mxPoint x="1060" y="-20" />
              <mxPoint x="1130" y="-20" />
            </Array>
          </mxGeometry>
        </mxCell>
        <mxCell id="-2P8RMvVIsFMxLnkhKAe-8" value="The parts supplier sends a delivery schedule" style="whiteSpace=wrap;html=1;verticalAlign=top;rounded=1;labelBackgroundColor=#ffffff;" parent="1" vertex="1">
          <mxGeometry x="990" y="-140" width="120" height="60" as="geometry" />
        </mxCell>
        <mxCell id="-2P8RMvVIsFMxLnkhKAe-16" value="" style="edgeStyle=orthogonalEdgeStyle;rounded=0;orthogonalLoop=1;jettySize=auto;html=1;" parent="1" source="-2P8RMvVIsFMxLnkhKAe-13" target="-2P8RMvVIsFMxLnkhKAe-15" edge="1">
          <mxGeometry relative="1" as="geometry" />
        </mxCell>
        <mxCell id="-2P8RMvVIsFMxLnkhKAe-13" value="Work Order Is Produced" style="whiteSpace=wrap;html=1;verticalAlign=top;rounded=1;labelBackgroundColor=#ffffff;" parent="1" vertex="1">
          <mxGeometry x="1270" y="60" width="120" height="60" as="geometry" />
        </mxCell>
        <mxCell id="-2P8RMvVIsFMxLnkhKAe-18" value="" style="edgeStyle=orthogonalEdgeStyle;rounded=0;orthogonalLoop=1;jettySize=auto;html=1;" parent="1" source="-2P8RMvVIsFMxLnkhKAe-15" target="-2P8RMvVIsFMxLnkhKAe-17" edge="1">
          <mxGeometry relative="1" as="geometry" />
        </mxCell>
        <mxCell id="-2P8RMvVIsFMxLnkhKAe-15" value="A product delivery schedule is produced and sent to the customer" style="whiteSpace=wrap;html=1;verticalAlign=top;rounded=1;labelBackgroundColor=#ffffff;" parent="1" vertex="1">
          <mxGeometry x="1420" y="60" width="160" height="60" as="geometry" />
        </mxCell>
        <mxCell id="-2P8RMvVIsFMxLnkhKAe-20" value="" style="edgeStyle=orthogonalEdgeStyle;rounded=0;orthogonalLoop=1;jettySize=auto;html=1;entryX=1;entryY=0.5;entryDx=0;entryDy=0;" parent="1" source="-2P8RMvVIsFMxLnkhKAe-17" target="-2P8RMvVIsFMxLnkhKAe-19" edge="1">
          <mxGeometry relative="1" as="geometry">
            <mxPoint x="1360" y="230" as="targetPoint" />
          </mxGeometry>
        </mxCell>
        <mxCell id="-2P8RMvVIsFMxLnkhKAe-17" value="Parts from the parts supplier are received" style="whiteSpace=wrap;html=1;verticalAlign=top;rounded=1;labelBackgroundColor=#ffffff;" parent="1" vertex="1">
          <mxGeometry x="1440" y="200" width="120" height="60" as="geometry" />
        </mxCell>
        <mxCell id="-2P8RMvVIsFMxLnkhKAe-22" value="" style="edgeStyle=orthogonalEdgeStyle;rounded=0;orthogonalLoop=1;jettySize=auto;html=1;" parent="1" source="-2P8RMvVIsFMxLnkhKAe-19" target="-2P8RMvVIsFMxLnkhKAe-21" edge="1">
          <mxGeometry relative="1" as="geometry" />
        </mxCell>
        <mxCell id="-2P8RMvVIsFMxLnkhKAe-19" value="The products are assembled" style="whiteSpace=wrap;html=1;verticalAlign=top;rounded=1;labelBackgroundColor=#ffffff;" parent="1" vertex="1">
          <mxGeometry x="1160" y="200" width="120" height="60" as="geometry" />
        </mxCell>
        <mxCell id="-2P8RMvVIsFMxLnkhKAe-21" value="Products are delivered to the warehouse" style="whiteSpace=wrap;html=1;verticalAlign=top;rounded=1;labelBackgroundColor=#ffffff;" parent="1" vertex="1">
          <mxGeometry x="960" y="200" width="120" height="60" as="geometry" />
        </mxCell>
        <mxCell id="-2P8RMvVIsFMxLnkhKAe-25" style="edgeStyle=orthogonalEdgeStyle;rounded=0;orthogonalLoop=1;jettySize=auto;html=1;exitX=0.5;exitY=1;exitDx=0;exitDy=0;exitPerimeter=0;" parent="1" source="FU4dxXCowXcYlLU4jK4w-2" target="FU4dxXCowXcYlLU4jK4w-2" edge="1">
          <mxGeometry relative="1" as="geometry" />
        </mxCell>
        <mxCell id="-2P8RMvVIsFMxLnkhKAe-26" style="edgeStyle=orthogonalEdgeStyle;rounded=0;orthogonalLoop=1;jettySize=auto;html=1;entryX=1;entryY=0.5;entryDx=0;entryDy=0;entryPerimeter=0;" parent="1" source="-2P8RMvVIsFMxLnkhKAe-21" target="FU4dxXCowXcYlLU4jK4w-2" edge="1">
          <mxGeometry relative="1" as="geometry" />
        </mxCell>
        <mxCell id="1TNm3yASb8GU968vAb-3-5" style="edgeStyle=orthogonalEdgeStyle;rounded=0;orthogonalLoop=1;jettySize=auto;html=1;" parent="1" source="1TNm3yASb8GU968vAb-3-3" target="-2P8RMvVIsFMxLnkhKAe-13" edge="1">
          <mxGeometry relative="1" as="geometry" />
        </mxCell>
        <mxCell id="1TNm3yASb8GU968vAb-3-3" value="" style="rhombus;whiteSpace=wrap;html=1;verticalAlign=top;rounded=1;labelBackgroundColor=#ffffff;" parent="1" vertex="1">
          <mxGeometry x="1090" y="50" width="80" height="80" as="geometry" />
        </mxCell>
        <mxCell id="1TNm3yASb8GU968vAb-3-6" value="&lt;br&gt;&lt;div style=&quot;font-size: 50px;&quot;&gt;BEFORE&lt;/div&gt;" style="text;html=1;align=center;verticalAlign=middle;resizable=0;points=[];autosize=1;strokeColor=none;fillColor=none;" parent="1" vertex="1">
          <mxGeometry x="713" y="-293" width="230" height="90" as="geometry" />
        </mxCell>
        <mxCell id="OtYZPIo47uLKYFtYsrMQ-1" value="&lt;p dir=&quot;auto&quot; style=&quot;box-sizing: border-box; margin-top: 0px; margin-bottom: var(--base-size-16); color: rgb(31, 35, 40); font-family: -apple-system, BlinkMacSystemFont, &amp;quot;Segoe UI&amp;quot;, &amp;quot;Noto Sans&amp;quot;, Helvetica, Arial, sans-serif, &amp;quot;Apple Color Emoji&amp;quot;, &amp;quot;Segoe UI Emoji&amp;quot;; font-size: 16px; font-style: normal; font-variant-ligatures: normal; font-variant-caps: normal; font-weight: 400; letter-spacing: normal; orphans: 2; text-align: start; text-indent: 0px; text-transform: none; widows: 2; word-spacing: 0px; -webkit-text-stroke-width: 0px; white-space: normal; background-color: rgb(255, 255, 255); text-decoration-thickness: initial; text-decoration-style: initial; text-decoration-color: initial;&quot;&gt;&lt;strong style=&quot;box-sizing: border-box; font-weight: var(--base-text-weight-semibold, 600);&quot;&gt;BPMN Exercise 2&lt;/strong&gt;&lt;span&gt;&amp;nbsp;&lt;/span&gt;Manufacturing Company – Assemble Ordered Products&lt;/p&gt;&lt;ol dir=&quot;auto&quot; style=&quot;box-sizing: border-box; padding-left: 2em; margin-top: 0px; margin-bottom: var(--base-size-16); color: rgb(31, 35, 40); font-family: -apple-system, BlinkMacSystemFont, &amp;quot;Segoe UI&amp;quot;, &amp;quot;Noto Sans&amp;quot;, Helvetica, Arial, sans-serif, &amp;quot;Apple Color Emoji&amp;quot;, &amp;quot;Segoe UI Emoji&amp;quot;; font-size: 16px; font-style: normal; font-variant-ligatures: normal; font-variant-caps: normal; font-weight: 400; letter-spacing: normal; orphans: 2; text-align: start; text-indent: 0px; text-transform: none; widows: 2; word-spacing: 0px; -webkit-text-stroke-width: 0px; white-space: normal; background-color: rgb(255, 255, 255); text-decoration-thickness: initial; text-decoration-style: initial; text-decoration-color: initial;&quot;&gt;&lt;li style=&quot;box-sizing: border-box;&quot;&gt;The customer order requirements are checked for parts availability&lt;/li&gt;&lt;li style=&quot;box-sizing: border-box; margin-top: 0.25em;&quot;&gt;If any parts are not in stock, then a list is produced and parts ordered from the supplier&lt;/li&gt;&lt;li style=&quot;box-sizing: border-box; margin-top: 0.25em;&quot;&gt;The parts supplier sends a delivery schedule&lt;/li&gt;&lt;li style=&quot;box-sizing: border-box; margin-top: 0.25em;&quot;&gt;A work order is produced&lt;/li&gt;&lt;li style=&quot;box-sizing: border-box; margin-top: 0.25em;&quot;&gt;A product delivery schedule is produced and sent to the customer&lt;/li&gt;&lt;li style=&quot;box-sizing: border-box; margin-top: 0.25em;&quot;&gt;Parts from the parts supplier are received&lt;/li&gt;&lt;li style=&quot;box-sizing: border-box; margin-top: 0.25em;&quot;&gt;The products are assembled&lt;/li&gt;&lt;li style=&quot;box-sizing: border-box; margin-top: 0.25em;&quot;&gt;Products are delivered to the warehouse&lt;/li&gt;&lt;li style=&quot;box-sizing: border-box; margin-top: 0.25em;&quot;&gt;The work order is completed&lt;/li&gt;&lt;/ol&gt;" style="text;whiteSpace=wrap;html=1;" vertex="1" parent="1">
          <mxGeometry x="30" y="-510" width="890" height="250" as="geometry" />
        </mxCell>
        <mxCell id="OtYZPIo47uLKYFtYsrMQ-2" value="" style="shape=flexArrow;endArrow=classic;startArrow=classic;html=1;rounded=0;fillColor=#f8cecc;strokeColor=#33001A;" edge="1" parent="1">
          <mxGeometry width="100" height="100" relative="1" as="geometry">
            <mxPoint x="-80" y="300" as="sourcePoint" />
            <mxPoint x="1800" y="300" as="targetPoint" />
          </mxGeometry>
        </mxCell>
        <mxCell id="OtYZPIo47uLKYFtYsrMQ-5" value="" style="edgeStyle=orthogonalEdgeStyle;rounded=0;orthogonalLoop=1;jettySize=auto;html=1;" edge="1" parent="1" source="OtYZPIo47uLKYFtYsrMQ-3" target="OtYZPIo47uLKYFtYsrMQ-4">
          <mxGeometry relative="1" as="geometry" />
        </mxCell>
        <mxCell id="OtYZPIo47uLKYFtYsrMQ-3" value="" style="points=[[0.145,0.145,0],[0.5,0,0],[0.855,0.145,0],[1,0.5,0],[0.855,0.855,0],[0.5,1,0],[0.145,0.855,0],[0,0.5,0]];shape=mxgraph.bpmn.event;html=1;verticalLabelPosition=bottom;labelBackgroundColor=#ffffff;verticalAlign=top;align=center;perimeter=ellipsePerimeter;outlineConnect=0;aspect=fixed;outline=standard;symbol=general;" vertex="1" parent="1">
          <mxGeometry x="-60" y="705" width="50" height="50" as="geometry" />
        </mxCell>
        <mxCell id="OtYZPIo47uLKYFtYsrMQ-7" value="" style="edgeStyle=orthogonalEdgeStyle;rounded=0;orthogonalLoop=1;jettySize=auto;html=1;" edge="1" parent="1" source="OtYZPIo47uLKYFtYsrMQ-4" target="OtYZPIo47uLKYFtYsrMQ-6">
          <mxGeometry relative="1" as="geometry" />
        </mxCell>
        <mxCell id="OtYZPIo47uLKYFtYsrMQ-4" value="check customer order for parts availability" style="whiteSpace=wrap;html=1;verticalAlign=top;labelBackgroundColor=#ffffff;" vertex="1" parent="1">
          <mxGeometry x="35" y="700" width="120" height="60" as="geometry" />
        </mxCell>
        <mxCell id="OtYZPIo47uLKYFtYsrMQ-12" value="" style="edgeStyle=orthogonalEdgeStyle;rounded=0;orthogonalLoop=1;jettySize=auto;html=1;" edge="1" parent="1" source="OtYZPIo47uLKYFtYsrMQ-6" target="OtYZPIo47uLKYFtYsrMQ-11">
          <mxGeometry relative="1" as="geometry" />
        </mxCell>
        <mxCell id="OtYZPIo47uLKYFtYsrMQ-13" value="parts missing" style="edgeLabel;html=1;align=center;verticalAlign=middle;resizable=0;points=[];" vertex="1" connectable="0" parent="OtYZPIo47uLKYFtYsrMQ-12">
          <mxGeometry x="0.098" y="2" relative="1" as="geometry">
            <mxPoint as="offset" />
          </mxGeometry>
        </mxCell>
        <mxCell id="OtYZPIo47uLKYFtYsrMQ-20" style="edgeStyle=orthogonalEdgeStyle;rounded=0;orthogonalLoop=1;jettySize=auto;html=1;entryX=0;entryY=0.5;entryDx=0;entryDy=0;" edge="1" parent="1" source="OtYZPIo47uLKYFtYsrMQ-6" target="OtYZPIo47uLKYFtYsrMQ-19">
          <mxGeometry relative="1" as="geometry">
            <mxPoint x="450" y="730" as="targetPoint" />
          </mxGeometry>
        </mxCell>
        <mxCell id="OtYZPIo47uLKYFtYsrMQ-6" value="" style="rhombus;whiteSpace=wrap;html=1;verticalAlign=top;labelBackgroundColor=#ffffff;" vertex="1" parent="1">
          <mxGeometry x="255" y="690" width="80" height="80" as="geometry" />
        </mxCell>
        <mxCell id="OtYZPIo47uLKYFtYsrMQ-15" value="" style="edgeStyle=orthogonalEdgeStyle;rounded=0;orthogonalLoop=1;jettySize=auto;html=1;" edge="1" parent="1" source="OtYZPIo47uLKYFtYsrMQ-11" target="OtYZPIo47uLKYFtYsrMQ-14">
          <mxGeometry relative="1" as="geometry" />
        </mxCell>
        <mxCell id="OtYZPIo47uLKYFtYsrMQ-11" value="produce list of required parts&amp;nbsp;" style="whiteSpace=wrap;html=1;verticalAlign=top;labelBackgroundColor=#ffffff;" vertex="1" parent="1">
          <mxGeometry x="235" y="540" width="120" height="60" as="geometry" />
        </mxCell>
        <mxCell id="OtYZPIo47uLKYFtYsrMQ-17" value="" style="edgeStyle=orthogonalEdgeStyle;rounded=0;orthogonalLoop=1;jettySize=auto;html=1;" edge="1" parent="1" source="OtYZPIo47uLKYFtYsrMQ-14" target="OtYZPIo47uLKYFtYsrMQ-16">
          <mxGeometry relative="1" as="geometry" />
        </mxCell>
        <mxCell id="OtYZPIo47uLKYFtYsrMQ-14" value="send parts order to supplies&amp;nbsp;" style="whiteSpace=wrap;html=1;verticalAlign=top;labelBackgroundColor=#ffffff;" vertex="1" parent="1">
          <mxGeometry x="435" y="540" width="120" height="60" as="geometry" />
        </mxCell>
        <mxCell id="OtYZPIo47uLKYFtYsrMQ-18" style="edgeStyle=orthogonalEdgeStyle;rounded=0;orthogonalLoop=1;jettySize=auto;html=1;" edge="1" parent="1" source="OtYZPIo47uLKYFtYsrMQ-16">
          <mxGeometry relative="1" as="geometry">
            <mxPoint x="810" y="690" as="targetPoint" />
          </mxGeometry>
        </mxCell>
        <mxCell id="OtYZPIo47uLKYFtYsrMQ-16" value="receive deliver schedule from suppliers&amp;nbsp;" style="whiteSpace=wrap;html=1;verticalAlign=top;labelBackgroundColor=#ffffff;" vertex="1" parent="1">
          <mxGeometry x="635" y="540" width="120" height="60" as="geometry" />
        </mxCell>
        <mxCell id="OtYZPIo47uLKYFtYsrMQ-22" value="" style="edgeStyle=orthogonalEdgeStyle;rounded=0;orthogonalLoop=1;jettySize=auto;html=1;" edge="1" parent="1" source="OtYZPIo47uLKYFtYsrMQ-19" target="OtYZPIo47uLKYFtYsrMQ-21">
          <mxGeometry relative="1" as="geometry" />
        </mxCell>
        <mxCell id="OtYZPIo47uLKYFtYsrMQ-19" value="" style="rhombus;whiteSpace=wrap;html=1;verticalAlign=top;labelBackgroundColor=#ffffff;" vertex="1" parent="1">
          <mxGeometry x="770" y="690" width="80" height="80" as="geometry" />
        </mxCell>
        <mxCell id="OtYZPIo47uLKYFtYsrMQ-24" value="" style="edgeStyle=orthogonalEdgeStyle;rounded=0;orthogonalLoop=1;jettySize=auto;html=1;" edge="1" parent="1" source="OtYZPIo47uLKYFtYsrMQ-21" target="OtYZPIo47uLKYFtYsrMQ-23">
          <mxGeometry relative="1" as="geometry" />
        </mxCell>
        <mxCell id="OtYZPIo47uLKYFtYsrMQ-21" value="produce work order&amp;nbsp;" style="whiteSpace=wrap;html=1;verticalAlign=top;labelBackgroundColor=#ffffff;" vertex="1" parent="1">
          <mxGeometry x="910" y="700" width="120" height="60" as="geometry" />
        </mxCell>
        <mxCell id="OtYZPIo47uLKYFtYsrMQ-26" value="" style="edgeStyle=orthogonalEdgeStyle;rounded=0;orthogonalLoop=1;jettySize=auto;html=1;" edge="1" parent="1" source="OtYZPIo47uLKYFtYsrMQ-23" target="OtYZPIo47uLKYFtYsrMQ-25">
          <mxGeometry relative="1" as="geometry" />
        </mxCell>
        <mxCell id="OtYZPIo47uLKYFtYsrMQ-23" value="produce product delivery schedule&amp;nbsp;" style="whiteSpace=wrap;html=1;verticalAlign=top;labelBackgroundColor=#ffffff;" vertex="1" parent="1">
          <mxGeometry x="1110" y="700" width="120" height="60" as="geometry" />
        </mxCell>
        <mxCell id="OtYZPIo47uLKYFtYsrMQ-27" style="edgeStyle=orthogonalEdgeStyle;rounded=0;orthogonalLoop=1;jettySize=auto;html=1;" edge="1" parent="1" source="OtYZPIo47uLKYFtYsrMQ-25">
          <mxGeometry relative="1" as="geometry">
            <mxPoint x="1500" y="920" as="targetPoint" />
          </mxGeometry>
        </mxCell>
        <mxCell id="OtYZPIo47uLKYFtYsrMQ-25" value="send delivery schedule to customer&amp;nbsp;" style="whiteSpace=wrap;html=1;verticalAlign=top;labelBackgroundColor=#ffffff;" vertex="1" parent="1">
          <mxGeometry x="1310" y="700" width="120" height="60" as="geometry" />
        </mxCell>
        <mxCell id="OtYZPIo47uLKYFtYsrMQ-29" style="edgeStyle=orthogonalEdgeStyle;rounded=0;orthogonalLoop=1;jettySize=auto;html=1;" edge="1" parent="1" source="OtYZPIo47uLKYFtYsrMQ-28">
          <mxGeometry relative="1" as="geometry">
            <mxPoint x="1500" y="1090" as="targetPoint" />
          </mxGeometry>
        </mxCell>
        <mxCell id="OtYZPIo47uLKYFtYsrMQ-30" value="parts required" style="edgeLabel;html=1;align=center;verticalAlign=middle;resizable=0;points=[];" vertex="1" connectable="0" parent="OtYZPIo47uLKYFtYsrMQ-29">
          <mxGeometry x="-0.232" relative="1" as="geometry">
            <mxPoint as="offset" />
          </mxGeometry>
        </mxCell>
        <mxCell id="OtYZPIo47uLKYFtYsrMQ-35" style="edgeStyle=orthogonalEdgeStyle;rounded=0;orthogonalLoop=1;jettySize=auto;html=1;entryX=1;entryY=0.5;entryDx=0;entryDy=0;" edge="1" parent="1" source="OtYZPIo47uLKYFtYsrMQ-28" target="OtYZPIo47uLKYFtYsrMQ-33">
          <mxGeometry relative="1" as="geometry" />
        </mxCell>
        <mxCell id="OtYZPIo47uLKYFtYsrMQ-28" value="" style="rhombus;whiteSpace=wrap;html=1;verticalAlign=top;labelBackgroundColor=#ffffff;" vertex="1" parent="1">
          <mxGeometry x="1460" y="920" width="80" height="80" as="geometry" />
        </mxCell>
        <mxCell id="OtYZPIo47uLKYFtYsrMQ-34" value="" style="edgeStyle=orthogonalEdgeStyle;rounded=0;orthogonalLoop=1;jettySize=auto;html=1;" edge="1" parent="1" source="OtYZPIo47uLKYFtYsrMQ-31" target="OtYZPIo47uLKYFtYsrMQ-33">
          <mxGeometry relative="1" as="geometry" />
        </mxCell>
        <mxCell id="OtYZPIo47uLKYFtYsrMQ-31" value="receive parts from supplier&amp;nbsp;" style="whiteSpace=wrap;html=1;verticalAlign=top;labelBackgroundColor=#ffffff;" vertex="1" parent="1">
          <mxGeometry x="1440" y="1090" width="120" height="60" as="geometry" />
        </mxCell>
        <mxCell id="OtYZPIo47uLKYFtYsrMQ-37" value="" style="edgeStyle=orthogonalEdgeStyle;rounded=0;orthogonalLoop=1;jettySize=auto;html=1;" edge="1" parent="1" source="OtYZPIo47uLKYFtYsrMQ-33" target="OtYZPIo47uLKYFtYsrMQ-36">
          <mxGeometry relative="1" as="geometry" />
        </mxCell>
        <mxCell id="OtYZPIo47uLKYFtYsrMQ-33" value="" style="rhombus;whiteSpace=wrap;html=1;verticalAlign=top;labelBackgroundColor=#ffffff;" vertex="1" parent="1">
          <mxGeometry x="1260" y="920" width="80" height="80" as="geometry" />
        </mxCell>
        <mxCell id="OtYZPIo47uLKYFtYsrMQ-39" value="" style="edgeStyle=orthogonalEdgeStyle;rounded=0;orthogonalLoop=1;jettySize=auto;html=1;" edge="1" parent="1" source="OtYZPIo47uLKYFtYsrMQ-36" target="OtYZPIo47uLKYFtYsrMQ-38">
          <mxGeometry relative="1" as="geometry" />
        </mxCell>
        <mxCell id="OtYZPIo47uLKYFtYsrMQ-36" value="assemble products" style="whiteSpace=wrap;html=1;verticalAlign=top;labelBackgroundColor=#ffffff;" vertex="1" parent="1">
          <mxGeometry x="1080" y="930" width="120" height="60" as="geometry" />
        </mxCell>
        <mxCell id="OtYZPIo47uLKYFtYsrMQ-41" value="" style="edgeStyle=orthogonalEdgeStyle;rounded=0;orthogonalLoop=1;jettySize=auto;html=1;" edge="1" parent="1" source="OtYZPIo47uLKYFtYsrMQ-38">
          <mxGeometry relative="1" as="geometry">
            <mxPoint x="780" y="960" as="targetPoint" />
          </mxGeometry>
        </mxCell>
        <mxCell id="OtYZPIo47uLKYFtYsrMQ-38" value="deliver products to warehouse" style="whiteSpace=wrap;html=1;verticalAlign=top;labelBackgroundColor=#ffffff;" vertex="1" parent="1">
          <mxGeometry x="880" y="930" width="120" height="60" as="geometry" />
        </mxCell>
        <mxCell id="OtYZPIo47uLKYFtYsrMQ-42" value="" style="points=[[0.145,0.145,0],[0.5,0,0],[0.855,0.145,0],[1,0.5,0],[0.855,0.855,0],[0.5,1,0],[0.145,0.855,0],[0,0.5,0]];shape=mxgraph.bpmn.event;html=1;verticalLabelPosition=bottom;labelBackgroundColor=#ffffff;verticalAlign=top;align=center;perimeter=ellipsePerimeter;outlineConnect=0;aspect=fixed;outline=end;symbol=terminate2;" vertex="1" parent="1">
          <mxGeometry x="726" y="935" width="50" height="50" as="geometry" />
        </mxCell>
      </root>
    </mxGraphModel>
  </diagram>
</mxfile>
